<?xml version="1.0" encoding="UTF-8" standalone="no"?>
<!DOCTYPE svg PUBLIC "-//W3C//DTD SVG 1.1//EN"
 "http://www.w3.org/Graphics/SVG/1.1/DTD/svg11.dtd">
<!-- Generated by graphviz version 12.1.1 (20240910.0053)
 -->
<!-- Title: INFRA Pages: 1 -->
<svg width="428pt" height="296pt"
 viewBox="0.00 0.00 428.16 296.00" xmlns="http://www.w3.org/2000/svg" xmlns:xlink="http://www.w3.org/1999/xlink">
<g id="graph0" class="graph" transform="scale(1 1) rotate(0) translate(4 292)">
<title>INFRA</title>
<polygon fill="white" stroke="none" points="-4,4 -4,-292 424.16,-292 424.16,4 -4,4"/>
<!-- FrontendS3Bucket -->
<g id="node1" class="node">
<title>FrontendS3Bucket</title>
<path fill="#fff5cd" stroke="black" stroke-width="2" d="M132.7,-65.45C132.7,-69.07 102.96,-72 66.35,-72 29.74,-72 0,-69.07 0,-65.45 0,-65.45 0,-6.55 0,-6.55 0,-2.93 29.74,0 66.35,0 102.96,0 132.7,-2.93 132.7,-6.55 132.7,-6.55 132.7,-65.45 132.7,-65.45"/>
<path fill="none" stroke="black" stroke-width="2" d="M132.7,-65.45C132.7,-61.84 102.96,-58.91 66.35,-58.91 29.74,-58.91 0,-61.84 0,-65.45"/>
<text text-anchor="middle" x="66.35" y="-40.2" font-family="Arial" font-size="14.00">FrontendS3Bucket</text>
<text text-anchor="middle" x="66.35" y="-23.4" font-family="Arial" font-size="14.00">(AWS::S3::Bucket)</text>
</g>
<!-- FrontendS3BucketPolicy -->
<g id="node2" class="node">
<title>FrontendS3BucketPolicy</title>
<path fill="#e6e6e6" stroke="black" stroke-width="2" d="M206.37,-288C206.37,-288 60.33,-288 60.33,-288 54.33,-288 48.33,-282 48.33,-276 48.33,-276 48.33,-228 48.33,-228 48.33,-222 54.33,-216 60.33,-216 60.33,-216 206.37,-216 206.37,-216 212.37,-216 218.37,-222 218.37,-228 218.37,-228 218.37,-276 218.37,-276 218.37,-282 212.37,-288 206.37,-288"/>
<text text-anchor="middle" x="133.35" y="-256.2" font-family="Arial" font-size="14.00">FrontendS3BucketPolicy</text>
<text text-anchor="middle" x="133.35" y="-239.4" font-family="Arial" font-size="14.00">(AWS::S3::BucketPolicy)</text>
</g>
<!-- FrontendS3BucketPolicy&#45;&gt;FrontendS3Bucket -->
<g id="edge1" class="edge">
<title>FrontendS3BucketPolicy&#45;&gt;FrontendS3Bucket</title>
<path fill="none" stroke="black" d="M104.73,-215.58C97.29,-204.73 90.05,-192.38 85.35,-180 73.65,-149.24 68.96,-112.38 67.16,-83.79"/>
<polygon fill="black" stroke="black" points="70.66,-83.8 66.65,-74 63.67,-84.16 70.66,-83.8"/>
</g>
<!-- FrontendCloudFrontDistribution -->
<g id="node3" class="node">
<title>FrontendCloudFrontDistribution</title>
<path fill="#e78f81" stroke="black" stroke-width="2" d="M294.38,-180C294.38,-180 106.32,-180 106.32,-180 100.32,-180 94.32,-174 94.32,-168 94.32,-168 94.32,-120 94.32,-120 94.32,-114 100.32,-108 106.32,-108 106.32,-108 294.38,-108 294.38,-108 300.38,-108 306.38,-114 306.38,-120 306.38,-120 306.38,-168 306.38,-168 306.38,-174 300.38,-180 294.38,-180"/>
<text text-anchor="middle" x="200.35" y="-148.2" font-family="Arial" font-size="14.00">FrontendCloudFrontDistribution</text>
<text text-anchor="middle" x="200.35" y="-131.4" font-family="Arial" font-size="14.00">(AWS::CloudFront::Distribution)</text>
</g>
<!-- FrontendS3BucketPolicy&#45;&gt;FrontendCloudFrontDistribution -->
<g id="edge2" class="edge">
<title>FrontendS3BucketPolicy&#45;&gt;FrontendCloudFrontDistribution</title>
<path fill="none" stroke="black" d="M155.66,-215.7C160.91,-207.39 166.58,-198.42 172.06,-189.75"/>
<polygon fill="black" stroke="black" points="174.94,-191.74 177.33,-181.42 169.03,-188 174.94,-191.74"/>
</g>
<!-- FrontendCloudFrontDistribution&#45;&gt;FrontendS3Bucket -->
<g id="edge3" class="edge">
<title>FrontendCloudFrontDistribution&#45;&gt;FrontendS3Bucket</title>
<path fill="none" stroke="black" d="M155.73,-107.7C143.84,-98.3 130.9,-88.06 118.64,-78.37"/>
<polygon fill="black" stroke="black" points="121.06,-75.82 111.05,-72.36 116.72,-81.31 121.06,-75.82"/>
</g>
<!-- OriginAccessControl -->
<g id="node4" class="node">
<title>OriginAccessControl</title>
<path fill="#e6e6e6" stroke="black" stroke-width="2" d="M408.16,-72C408.16,-72 162.53,-72 162.53,-72 156.53,-72 150.53,-66 150.53,-60 150.53,-60 150.53,-12 150.53,-12 150.53,-6 156.53,0 162.53,0 162.53,0 408.16,0 408.16,0 414.16,0 420.16,-6 420.16,-12 420.16,-12 420.16,-60 420.16,-60 420.16,-66 414.16,-72 408.16,-72"/>
<text text-anchor="middle" x="285.35" y="-40.2" font-family="Arial" font-size="14.00">OriginAccessControl</text>
<text text-anchor="middle" x="285.35" y="-23.4" font-family="Arial" font-size="14.00">(AWS::CloudFront::OriginAccessControl)</text>
</g>
<!-- FrontendCloudFrontDistribution&#45;&gt;OriginAccessControl -->
<g id="edge4" class="edge">
<title>FrontendCloudFrontDistribution&#45;&gt;OriginAccessControl</title>
<path fill="none" stroke="black" d="M228.65,-107.7C235.53,-99.12 242.98,-89.84 250.14,-80.91"/>
<polygon fill="black" stroke="black" points="252.7,-83.31 256.22,-73.32 247.23,-78.94 252.7,-83.31"/>
</g>
</g>
</svg>
